<?xml version="1.0" encoding="UTF-8" standalone="no"?>
<!DOCTYPE svg PUBLIC "-//W3C//DTD SVG 1.1//EN"
 "http://www.w3.org/Graphics/SVG/1.1/DTD/svg11.dtd">
<!-- Generated by graphviz version 2.38.0 (20140413.2041)
 -->
<!-- Title: G Pages: 1 -->
<svg width="155pt" height="264pt"
 viewBox="0.00 0.00 155.00 264.00" xmlns="http://www.w3.org/2000/svg" xmlns:xlink="http://www.w3.org/1999/xlink">
<g id="graph0" class="graph" transform="scale(1 1) rotate(0) translate(4 260)">
<title>G</title>
<polygon fill="white" stroke="none" points="-4,4 -4,-260 151,-260 151,4 -4,4"/>
<!-- 140022141380048 -->
<g id="node1" class="node"><title>140022141380048</title>
<polygon fill="none" stroke="black" points="0,-219.5 0,-255.5 147,-255.5 147,-219.5 0,-219.5"/>
<text text-anchor="middle" x="73.5" y="-233.8" font-family="Times,serif" font-size="14.00">input_layer: InputLayer</text>
</g>
<!-- 140022141380368 -->
<g id="node2" class="node"><title>140022141380368</title>
<polygon fill="none" stroke="black" points="22.5,-146.5 22.5,-182.5 124.5,-182.5 124.5,-146.5 22.5,-146.5"/>
<text text-anchor="middle" x="73.5" y="-160.8" font-family="Times,serif" font-size="14.00">dense_1: Dense</text>
</g>
<!-- 140022141380048&#45;&gt;140022141380368 -->
<g id="edge1" class="edge"><title>140022141380048&#45;&gt;140022141380368</title>
<path fill="none" stroke="black" d="M73.5,-219.313C73.5,-211.289 73.5,-201.547 73.5,-192.569"/>
<polygon fill="black" stroke="black" points="77.0001,-192.529 73.5,-182.529 70.0001,-192.529 77.0001,-192.529"/>
</g>
<!-- 140022141380816 -->
<g id="node3" class="node"><title>140022141380816</title>
<polygon fill="none" stroke="black" points="22.5,-73.5 22.5,-109.5 124.5,-109.5 124.5,-73.5 22.5,-73.5"/>
<text text-anchor="middle" x="73.5" y="-87.8" font-family="Times,serif" font-size="14.00">dense_2: Dense</text>
</g>
<!-- 140022141380368&#45;&gt;140022141380816 -->
<g id="edge2" class="edge"><title>140022141380368&#45;&gt;140022141380816</title>
<path fill="none" stroke="black" d="M73.5,-146.313C73.5,-138.289 73.5,-128.547 73.5,-119.569"/>
<polygon fill="black" stroke="black" points="77.0001,-119.529 73.5,-109.529 70.0001,-119.529 77.0001,-119.529"/>
</g>
<!-- 140022141380944 -->
<g id="node4" class="node"><title>140022141380944</title>
<polygon fill="none" stroke="black" points="22.5,-0.5 22.5,-36.5 124.5,-36.5 124.5,-0.5 22.5,-0.5"/>
<text text-anchor="middle" x="73.5" y="-14.8" font-family="Times,serif" font-size="14.00">dense_3: Dense</text>
</g>
<!-- 140022141380816&#45;&gt;140022141380944 -->
<g id="edge3" class="edge"><title>140022141380816&#45;&gt;140022141380944</title>
<path fill="none" stroke="black" d="M73.5,-73.3129C73.5,-65.2895 73.5,-55.5475 73.5,-46.5691"/>
<polygon fill="black" stroke="black" points="77.0001,-46.5288 73.5,-36.5288 70.0001,-46.5289 77.0001,-46.5288"/>
</g>
</g>
</svg>
